<svg width="327" height="104" viewBox="0 0 327 104" fill="none" xmlns="http://www.w3.org/2000/svg">
  <!-- Fondo del botón -->
  <rect y="36" width="327" height="68" rx="16" fill="#8A9DF0"/>

  <!-- Icono de chat con fondo circular -->
  <g transform="translate(20, 58)">
    <circle cx="12" cy="8" r="14" fill="white" fill-opacity="0.2"/>
    <path d="M18 2H6C4.9 2 4 2.9 4 4V12C4 13.1 4.9 14 6 14H10L13 17V14H18C19.1 14 20 13.1 20 12V4C20 2.9 19.1 2 18 2Z" 
          fill="white"/>
    <path d="M7 6H17M7 9H13" stroke="#8A9DF0" stroke-width="1.5" stroke-linecap="round"/>
  </g>

  <!-- Textos dentro del botón -->
  <text x="60" y="60" font-family="Arial, sans-serif" font-size="14" fill="white">
    ¿Tienes alguna pregunta para Finpay?
  </text>
  <text x="60" y="78" font-family="Arial, sans-serif" font-size="12" fill="#E5E7EB">
    Nuestro soporte está activo 24/7!
  </text>

  <!-- Flecha blanca a la derecha -->
  <path d="M295.91 77.92L302.43 71.4C303.2 70.63 303.2 69.37 302.43 68.6L295.91 62.08" 
        stroke="white" stroke-width="2" stroke-linecap="round" stroke-linejoin="round"/>
</svg>

